# Blender v2.68 (sub 0) OBJ File: ''
# www.blender.org
mtllib untitled.mtl
o Cube
v 1.000000 -1.000000 -1.000000
v 1.000000 -1.000000 1.000000
v -1.000000 -1.000000 1.000000
v -1.000000 -1.000000 -1.000000
v 1.000000 1.000000 -0.999999
v 0.999999 1.000000 1.000001
v -1.000000 1.000000 1.000000
v -1.000000 1.000000 -1.000000
v 1.000000 -1.000000 0.000000
v 0.000000 -1.000000 -1.000000
v 1.000000 0.000000 -1.000000
v 0.000000 -1.000000 1.000000
v 1.000000 0.000000 1.000000
v -1.000000 -1.000000 -0.000000
v -1.000000 0.000000 1.000000
v -1.000000 0.000000 -1.000000
v 1.000000 1.000000 0.000001
v 0.000000 1.000000 -1.000000
v -0.000001 1.000000 1.000000
v -1.000000 1.000000 -0.000000
v 0.000000 -1.000000 -0.000000
v -0.000000 1.000000 0.000000
v 1.000000 0.000000 0.000000
v -0.000000 0.000000 1.000000
v -1.000000 0.000000 -0.000000
v 0.000000 0.000000 -1.000000
v 1.000000 -1.000000 0.500000
v -0.500000 -1.000000 -1.000000
v 1.000000 0.500000 -1.000000
v -0.500000 -1.000000 1.000000
v 1.000000 0.500000 1.000000
v -1.000000 -1.000000 -0.500000
v -1.000000 0.500000 1.000000
v -1.000000 0.500000 -1.000000
v 1.000000 1.000000 0.500001
v -0.500000 1.000000 -1.000000
v -0.500000 1.000000 1.000000
v -1.000000 1.000000 -0.500000
v 1.000000 -1.000000 -0.500000
v 0.500000 -1.000000 -1.000000
v 1.000000 -0.500000 -1.000000
v 0.500000 -1.000000 1.000000
v 1.000000 -0.500000 1.000000
v -1.000000 -1.000000 0.500000
v -1.000000 -0.500000 1.000000
v -1.000000 -0.500000 -1.000000
v 1.000000 1.000000 -0.499999
v 0.500000 1.000000 -1.000000
v 0.499999 1.000000 1.000000
v -1.000000 1.000000 0.500000
v -0.500000 -1.000000 -0.000000
v 0.500000 -1.000000 -0.000000
v 0.000000 -1.000000 -0.500000
v 0.000000 -1.000000 0.500000
v -0.000000 1.000000 0.500000
v 0.000000 1.000000 -0.500000
v 0.500000 1.000000 0.000000
v -0.500000 1.000000 0.000000
v 1.000000 0.000000 0.500000
v 1.000000 0.000000 -0.500000
v 1.000000 -0.500000 0.000000
v 1.000000 0.500000 0.000000
v -0.500000 0.000000 1.000000
v 0.500000 0.000000 1.000000
v -0.000000 -0.500000 1.000000
v -0.000000 0.500000 1.000000
v -1.000000 0.000000 -0.500000
v -1.000000 0.000000 0.500000
v -1.000000 -0.500000 -0.000000
v -1.000000 0.500000 -0.000000
v -0.500000 0.000000 -1.000000
v 0.500000 0.000000 -1.000000
v 0.000000 0.500000 -1.000000
v 0.000000 -0.500000 -1.000000
v -0.500000 -1.000000 0.500000
v -0.500000 1.000000 0.500000
v 1.000000 0.500000 0.500000
v -0.500000 0.500000 1.000000
v -1.000000 0.500000 -0.500000
v -0.500000 -0.500000 -1.000000
v -0.500000 -1.000000 -0.500000
v 0.500000 -1.000000 -0.500000
v 0.500000 -1.000000 0.500000
v 0.500000 1.000000 0.500000
v 0.500000 1.000000 -0.500000
v -0.500000 1.000000 -0.500000
v 1.000000 -0.500000 0.500000
v 1.000000 -0.500000 -0.500000
v 1.000000 0.500000 -0.500000
v -0.500000 -0.500000 1.000000
v 0.500000 -0.500000 1.000000
v 0.500000 0.500000 1.000000
v -1.000000 -0.500000 -0.500000
v -1.000000 -0.500000 0.500000
v -1.000000 0.500000 0.500000
v -0.500000 0.500000 -1.000000
v 0.500000 0.500000 -1.000000
v 0.500000 -0.500000 -1.000000
vt 0.154807 0.845192
vt 0.154807 0.922546
vt 0.077454 0.845192
vt 0.077454 0.922546
vt 0.077454 0.999900
vt 0.000100 0.922546
vt 0.000100 0.845192
vt 0.154807 0.999900
vt 0.000100 0.999900
vt 0.368156 0.432329
vt 0.370974 0.412056
vt 0.387063 0.430523
vt 0.461191 0.396160
vt 0.446550 0.407703
vt 0.445299 0.383584
vt 0.612665 0.007202
vt 0.550192 0.289233
vt 0.444570 0.241129
vt 0.425315 0.380244
vt 0.426727 0.398944
vt 0.444040 0.443896
vt 0.458644 0.438680
vt 0.450129 0.458107
vt 0.420674 0.488854
vt 0.401040 0.485837
vt 0.418853 0.470605
vt 0.384336 0.473103
vt 0.372956 0.454129
vt 0.399130 0.461455
vt 0.337713 0.522655
vt 0.306146 0.482906
vt 0.364990 0.492168
vt 0.298436 0.432197
vt 0.311711 0.386443
vt 0.340442 0.432840
vt 0.509737 0.348186
vt 0.481218 0.377586
vt 0.470292 0.326906
vt 0.546418 0.438983
vt 0.505125 0.436752
vt 0.540156 0.388253
vt 0.477808 0.436650
vt 0.472700 0.415028
vt 0.052276 0.281842
vt 0.239289 0.000100
vt 0.278052 0.305091
vt 0.774727 0.590292
vt 0.611378 0.450840
vt 0.854649 0.280269
vt 0.384310 0.395344
vt 0.403618 0.384399
vt 0.396012 0.410814
vt 0.334002 0.345415
vt 0.376907 0.315330
vt 0.365052 0.375046
vt 0.427952 0.311425
vt 0.425471 0.352749
vt 0.413712 0.455322
vt 0.428928 0.449853
vt 0.401868 0.425281
vt 0.416889 0.419422
vt 0.407626 0.440437
vt 0.431944 0.414042
vt 0.438153 0.428836
vt 0.461607 0.473515
vt 0.442301 0.484476
vt 0.509463 0.521872
vt 0.468390 0.550707
vt 0.480123 0.493343
vt 0.419564 0.555227
vt 0.377564 0.541877
vt 0.420983 0.515596
vt 0.391910 0.446689
vt 0.346589 0.465147
vt 0.346946 0.401636
vt 0.455690 0.359975
vt 0.499202 0.404565
vt 0.453836 0.422605
vt 0.347186 0.237291
vt 0.615196 0.357873
vt 0.410864 0.403578
vt 0.393150 0.357423
vt 0.435024 0.465628
vt 0.422898 0.434648
vt 0.452628 0.510601
vt 0.391102 0.509092
vt 0.405875 0.471430
vt 0.368080 0.575231
vt 0.301860 0.578893
vt 0.232446 0.516719
vt 0.228776 0.421694
vt 0.271162 0.373443
vt 0.485253 0.293272
vt 0.569397 0.499382
vt 0.531569 0.482284
vt 0.498029 0.467502
vt 0.474882 0.457375
vt 0.461643 0.451584
vt 0.000100 0.607545
vt 0.255810 0.844992
vt 0.406411 0.622002
vt 0.496387 0.623855
vt 0.560818 0.561260
vt 0.595816 0.844992
vt 0.385188 0.416755
vt 0.438833 0.398362
vn 1.000000 -0.000000 0.000000
vn 0.000000 -1.000000 0.000000
vn -0.000000 1.000000 0.000000
vn -0.000000 -0.000000 1.000000
vn -1.000000 -0.000000 -0.000000
vn 0.000000 0.000000 -1.000000
vn 1.000000 0.000000 0.000001
usemtl Blue.001
s off
f 88/1/1 60/2/1 61/3/1
f 23/4/1 62/5/1 59/6/1
f 61/3/1 23/4/1 87/7/1
f 60/2/1 89/8/1 23/4/1
f 60/2/1 23/4/1 61/3/1
f 62/5/1 77/9/1 59/6/1
f 23/4/1 59/6/1 87/7/1
f 89/8/1 62/5/1 23/4/1
usemtl Material
f 75/10/2 30/11/2 44/12/2
f 76/13/3 50/14/3 37/15/3
f 77/16/1 35/17/1 31/18/1
f 78/19/4 37/15/4 33/20/4
f 79/21/5 38/22/5 34/23/5
f 80/24/6 28/25/6 46/26/6
f 81/27/2 51/28/2 32/29/2
f 82/30/2 52/31/2 53/32/2
f 83/33/2 42/34/2 54/35/2
f 84/36/3 55/37/3 49/38/3
f 85/39/3 56/40/3 57/41/3
f 86/42/3 38/22/3 58/43/3
f 87/44/1 59/45/1 43/46/1
f 89/47/1 47/48/1 62/49/1
f 90/50/4 63/51/4 45/52/4
f 91/53/4 64/54/4 65/55/4
f 92/56/4 49/38/4 66/57/4
f 93/58/5 67/59/5 46/26/5
f 94/60/5 68/61/5 69/62/5
f 95/63/5 50/14/5 70/64/5
f 96/65/6 71/66/6 34/23/6
f 97/67/6 72/68/6 73/69/6
f 98/70/6 40/71/6 74/72/6
f 51/28/2 75/10/2 14/73/2
f 21/74/2 54/35/2 51/28/2
f 54/35/2 12/75/2 75/10/2
f 55/37/3 76/13/3 19/76/3
f 22/77/3 58/43/3 55/37/3
f 58/43/3 20/78/3 76/13/3
f 59/45/1 77/16/1 13/79/1
f 62/49/1 17/80/1 77/16/1
f 63/51/4 78/19/4 15/81/4
f 24/82/4 66/57/4 63/51/4
f 66/57/4 19/76/4 78/19/4
f 67/59/5 79/21/5 16/83/5
f 25/84/5 70/64/5 67/59/5
f 70/64/5 20/78/5 79/21/5
f 71/66/6 80/24/6 16/83/6
f 26/85/6 74/72/6 71/66/6
f 74/72/6 10/86/6 80/24/6
f 28/25/2 81/27/2 4/87/2
f 10/86/2 53/32/2 28/25/2
f 53/32/2 21/74/2 81/27/2
f 40/71/2 82/30/2 10/86/2
f 1/88/2 39/89/2 40/71/2
f 39/89/2 9/90/2 82/30/2
f 52/31/2 83/33/2 21/74/2
f 9/90/2 27/91/2 52/31/2
f 27/91/2 2/92/2 83/33/2
f 35/17/3 84/36/3 6/93/3
f 17/80/3 57/41/3 35/17/3
f 57/41/3 22/77/3 84/36/3
f 47/48/3 85/39/3 17/80/3
f 5/94/3 48/95/3 47/48/3
f 48/95/3 18/96/3 85/39/3
f 56/40/3 86/42/3 22/77/3
f 18/96/3 36/97/3 56/40/3
f 36/97/3 8/98/3 86/42/3
f 27/91/1 87/44/1 2/92/1
f 9/90/1 61/99/1 27/91/1
f 39/89/1 88/100/1 9/90/1
f 1/88/1 41/101/1 39/89/1
f 41/101/1 11/102/1 88/100/1
f 11/102/1 29/103/1 60/104/1
f 29/103/1 5/94/1 89/47/1
f 30/11/4 90/50/4 3/105/4
f 12/75/4 65/55/4 30/11/4
f 65/55/4 24/82/4 90/50/4
f 42/34/4 91/53/4 12/75/4
f 2/92/4 43/46/4 42/34/4
f 43/46/4 13/79/4 91/53/4
f 64/54/4 92/56/4 24/82/4
f 13/79/4 31/18/4 64/54/4
f 31/18/4 6/93/4 92/56/4
f 32/29/5 93/58/5 4/87/5
f 14/73/5 69/62/5 32/29/5
f 69/62/5 25/84/5 93/58/5
f 44/12/5 94/60/5 14/73/5
f 3/105/5 45/52/5 44/12/5
f 45/52/5 15/81/5 94/60/5
f 68/61/5 95/63/5 25/84/5
f 15/81/5 33/20/5 68/61/5
f 33/20/5 7/106/5 95/63/5
f 36/97/6 96/65/6 8/98/6
f 18/96/6 73/69/6 36/97/6
f 73/69/6 26/85/6 96/65/6
f 48/95/6 97/67/6 18/96/6
f 5/94/6 29/103/6 48/95/6
f 29/103/6 11/102/6 97/67/6
f 72/68/6 98/70/6 26/85/6
f 11/102/6 41/101/6 72/68/6
f 41/101/6 1/88/6 98/70/6
f 30/11/2 3/105/2 44/12/2
f 50/14/3 7/106/3 37/15/3
f 35/17/7 6/93/7 31/18/7
f 37/15/4 7/106/4 33/20/4
f 38/22/5 8/98/5 34/23/5
f 28/25/6 4/87/6 46/26/6
f 51/28/2 14/73/2 32/29/2
f 52/31/2 21/74/2 53/32/2
f 42/34/2 12/75/2 54/35/2
f 55/37/3 19/76/3 49/38/3
f 56/40/3 22/77/3 57/41/3
f 38/22/3 20/78/3 58/43/3
f 59/45/1 13/79/1 43/46/1
f 47/48/7 17/80/7 62/49/7
f 63/51/4 15/81/4 45/52/4
f 64/54/4 24/82/4 65/55/4
f 49/38/4 19/76/4 66/57/4
f 67/59/5 16/83/5 46/26/5
f 68/61/5 25/84/5 69/62/5
f 50/14/5 20/78/5 70/64/5
f 71/66/6 16/83/6 34/23/6
f 72/68/6 26/85/6 73/69/6
f 40/71/6 10/86/6 74/72/6
f 75/10/2 44/12/2 14/73/2
f 54/35/2 75/10/2 51/28/2
f 12/75/2 30/11/2 75/10/2
f 76/13/3 37/15/3 19/76/3
f 58/43/3 76/13/3 55/37/3
f 20/78/3 50/14/3 76/13/3
f 77/16/1 31/18/1 13/79/1
f 17/80/1 35/17/1 77/16/1
f 78/19/4 33/20/4 15/81/4
f 66/57/4 78/19/4 63/51/4
f 19/76/4 37/15/4 78/19/4
f 79/21/5 34/23/5 16/83/5
f 70/64/5 79/21/5 67/59/5
f 20/78/5 38/22/5 79/21/5
f 80/24/6 46/26/6 16/83/6
f 74/72/6 80/24/6 71/66/6
f 10/86/6 28/25/6 80/24/6
f 81/27/2 32/29/2 4/87/2
f 53/32/2 81/27/2 28/25/2
f 21/74/2 51/28/2 81/27/2
f 82/30/2 53/32/2 10/86/2
f 39/89/2 82/30/2 40/71/2
f 9/90/2 52/31/2 82/30/2
f 83/33/2 54/35/2 21/74/2
f 27/91/2 83/33/2 52/31/2
f 2/92/2 42/34/2 83/33/2
f 84/36/3 49/38/3 6/93/3
f 57/41/3 84/36/3 35/17/3
f 22/77/3 55/37/3 84/36/3
f 85/39/3 57/41/3 17/80/3
f 48/95/3 85/39/3 47/48/3
f 18/96/3 56/40/3 85/39/3
f 86/42/3 58/43/3 22/77/3
f 36/97/3 86/42/3 56/40/3
f 8/98/3 38/22/3 86/42/3
f 87/44/1 43/46/1 2/92/1
f 61/99/1 87/44/1 27/91/1
f 88/100/1 61/99/1 9/90/1
f 41/101/1 88/100/1 39/89/1
f 11/102/1 60/104/1 88/100/1
f 29/103/1 89/47/1 60/104/1
f 5/94/1 47/48/1 89/47/1
f 90/50/4 45/52/4 3/105/4
f 65/55/4 90/50/4 30/11/4
f 24/82/4 63/51/4 90/50/4
f 91/53/4 65/55/4 12/75/4
f 43/46/4 91/53/4 42/34/4
f 13/79/4 64/54/4 91/53/4
f 92/56/4 66/57/4 24/82/4
f 31/18/4 92/56/4 64/54/4
f 6/93/4 49/38/4 92/56/4
f 93/58/5 46/26/5 4/87/5
f 69/62/5 93/58/5 32/29/5
f 25/84/5 67/59/5 93/58/5
f 94/60/5 69/62/5 14/73/5
f 45/52/5 94/60/5 44/12/5
f 15/81/5 68/61/5 94/60/5
f 95/63/5 70/64/5 25/84/5
f 33/20/5 95/63/5 68/61/5
f 7/106/5 50/14/5 95/63/5
f 96/65/6 34/23/6 8/98/6
f 73/69/6 96/65/6 36/97/6
f 26/85/6 71/66/6 96/65/6
f 97/67/6 73/69/6 18/96/6
f 29/103/6 97/67/6 48/95/6
f 11/102/6 72/68/6 97/67/6
f 98/70/6 74/72/6 26/85/6
f 41/101/6 98/70/6 72/68/6
f 1/88/6 40/71/6 98/70/6
