# Blender v2.69 (sub 0) OBJ File: ''
# www.blender.org
mtllib test_player.mtl
o Mesh2_skp3994_1_Model
v -0.976279 0.178746 0.009559
v 0.989934 0.178746 0.992663
v 0.989934 0.178747 -0.973548
v 0.989934 -0.099053 0.992663
v 0.989934 -0.099052 -0.973548
v -0.976279 -0.099052 0.009559
l 5 4
l 1 2
l 2 3
l 6 5
l 4 6
l 3 1
l 2 4
l 1 6
l 3 5
o Mesh1_skp3994_1_Model
v 0.989934 0.178747 -0.973548
v -0.976279 0.178746 0.009559
v 0.989934 0.178746 0.992663
v 0.989934 -0.099052 -0.973548
v -0.976279 -0.099052 0.009559
v 0.989934 -0.099053 0.992663
vt 39.370098 39.370098
vt -39.370098 0.000000
vt 39.370098 -39.370098
vt 35.213699 11.124900
vt -52.820499 11.124900
vt -52.820499 0.000000
vt 35.213699 0.000000
vt -39.370098 -39.370098
vt 39.370098 0.000000
vt -39.370098 39.370098
vt 52.820499 11.124900
vt -35.213699 0.000000
vt 52.820499 0.000000
vt -35.213699 11.124900
vt -39.370098 11.124900
vt 39.370098 11.124900
vn -0.000000 1.000000 0.000000
vn -0.447214 0.000000 -0.894427
vn -0.000000 -1.000000 -0.000000
vn -0.447212 0.000000 0.894428
vn -0.447213 -0.000000 0.894428
vn 1.000000 0.000000 0.000000
usemtl _auto_.001
s off
f 7/1/1 8/2/1 9/3/1
f 8/4/2 7/5/2 10/6/2
f 8/4/2 10/6/2 11/7/2
f 12/8/3 11/9/3 10/10/3
f 9/11/4 11/12/4 12/13/4
f 11/12/5 9/11/5 8/14/5
f 10/9/6 9/15/6 12/2/6
f 10/9/6 7/16/6 9/15/6
