# Alias OBJ Model File
# Exported from SketchUp, (c) 2000-2012 Trimble Navigation Limited
# File units = meters

mtllib test_player.mtl

g Mesh1 skp3994_1 Model

usemtl _auto_
v 0.0888812 0.02 -0.114908
vt 39.3701 39.3701
vn 0 1 -0
v -0.131119 0.02 -0.00490778
vt -39.3701 0
v 0.0888812 0.02 0.105092
vt 39.3701 -39.3701
f 1/1/1 2/2/1 3/3/1

v 0.0888812 -0.011083 -0.114908
vt -52.8205 0
vn -0.447214 0 -0.894427
vt 35.2137 11.1249
vt -52.8205 11.1249
f 4/4/2 2/5/2 1/6/2

v -0.131119 -0.011083 -0.00490778
vt 35.2137 0
f 2/5/2 4/4/2 5/7/2

v 0.0888812 -0.011083 0.105092
vt -39.3701 -39.3701
vn 0 -1 -0
vt 39.3701 0
vt -39.3701 39.3701
f 6/8/3 5/9/3 4/10/3

vt 52.8205 11.1249
vn -0.447214 0 0.894427
vt -35.2137 0
vt 52.8205 0
f 3/11/4 5/12/4 6/13/4

vt -35.2137 11.1249
f 5/12/4 3/11/4 2/14/4

vn 1 0 -0
vt -39.3701 11.1249
f 4/9/5 3/15/5 6/2/5

vt 39.3701 11.1249
f 3/15/5 4/9/5 1/16/5

g Mesh2 skp3994_1 Model

l 2 3

l 1 2

l 3 1

l 3 6

l 4 6

l 5 4

l 6 5

l 2 5

l 1 4

